<svg xmlns="http://www.w3.org/2000/svg" viewBox="48.9 194 276 68" fill="#005b53"><path d="M57.9 199.2s9.2 6.5 0 19.8c-8.3 12-13.2 24.8-4.1 34.3 2.7 2.8 5.8 4.2 9 4.5-5.2-1.5-9.1-6.7-4.6-16 2.8-5.7 9.7-12.4 7.4-20.3 0 0 6.2 7.8 2 19.8-1.9 5.4 6.6 6 4.3.1-1.4-3.6 6.6 7.1 2.3 13.3 4-2.8 6.2-7.4 7.8-12.3 4.5-13.9-1.5-36.3-24.1-43.2zM228.3 242.5c1.6 4.9 3.8 9.5 7.8 12.3-4.3-6.2 3.7-16.9 2.3-13.3-2.3 5.9 3.8 7.7 7 .5 4.4-9.9-4.7-19.7-4.7-19.7 6.1 3.2 12.6 6.9 15 17.2 2.4 10.2-3 17-8.2 18.5 3.2-.3 6.4-1.7 9-4.5 9.2-9.5 4.2-22.3-4.1-34.3-9.2-13.3 0-19.8 0-19.8-22.6 6.7-28.6 29.1-24.1 43.1zM290.9 242.5c1.6 4.9 3.8 9.5 7.8 12.3-4.3-6.2 3.7-16.9 2.3-13.3-2.3 5.9 6.2 5.3 4.3-.1-4.2-11.9 2-19.8 2-19.8-1.9 11.5 2.6 15.9 3.2 16.3 1.3.9 3.2 1.3 3.7-1.5 6.9 11.3 1.1 20-4 21.5 3.2-.3 6.4-1.7 9-4.5 9.2-9.5 6.6-18.7-1.7-30.7-6.7-9.4-3.1-25.4-3.1-25.4-23 15.3-28 31.2-23.5 45.2zM128.2 199.2s-24.2 31.1-9.1 54.1c3.1 3.5 5.8 4.2 9 4.5-3.6-1-7.1-8.4-7.4-14.4-.3-8.2 2.3-14.9 9.3-24.7 0 0-5 12.2 6.4 20.6 6.2 4.5 4.4 13.4 3 15.5 4-2.8 6.2-7.4 7.8-12.3 4.6-14-17.5-27.2-19-43.3zM182 199.2s-1.2 10.7-10.8 25.8c-6.4 10.1-4.8 20.6 1.7 28.4 3.1 3.5 5.8 4.2 9 4.5-3.6-1-8.5-6.9-8.2-12.4.6-12 10-12.4 10-28.6 0 0 7.2 9.7 3.8 17-1.8 4-.8 8.4 3.5 8.7 3.8.3 5.8 7.6 2.3 12 4-2.8 6.2-7.4 7.8-12.3 4.5-13.8-1-32.7-19.1-43.1z"/></svg>